<?xml version="1.0" encoding="utf-8"?>
<!-- Generator: Adobe Illustrator 16.0.0, SVG Export Plug-In . SVG Version: 6.00 Build 0)  -->
<!DOCTYPE svg PUBLIC "-//W3C//DTD SVG 1.1//EN" "http://www.w3.org/Graphics/SVG/1.1/DTD/svg11.dtd">
<svg version="1.1" id="Layer_1" xmlns="http://www.w3.org/2000/svg" xmlns:xlink="http://www.w3.org/1999/xlink" x="0px" y="0px"
	 width="67.532px" height="56.957px" viewBox="0 0 67.532 56.957" enable-background="new 0 0 67.532 56.957" xml:space="preserve">
<g>
	<circle fill="#190833" cx="33.969" cy="28.478" r="28.479"/>
</g>
<g>
	<path fill="#FFFFFF" d="M36.298,32.75h2.765v12.361c0,1.518-0.65,2.657-1.572,3.47c-0.976,0.868-1.789,1.301-3.524,1.301
		c-0.867,0-1.572-0.108-2.277-0.325c-0.651-0.217-1.139-0.542-1.626-0.976c-0.488-0.434-0.759-0.921-0.976-1.464
		c-0.271-0.596-0.217-1.247-0.217-2.006V10.957c0-0.759-0.054-1.464,0.217-2.006c0.217-0.596,0.488-1.084,0.976-1.518
		c0.488-0.38,0.976-0.705,1.626-0.922c0.705-0.217,1.41-0.379,2.277-0.379c1.735,0,2.548,0.434,3.524,1.301
		c0.922,0.867,1.572,2.006,1.572,3.524v12.307h-2.765V10.957c0-0.705-0.163-1.301-0.597-1.735c-0.434-0.488-0.976-0.759-1.789-0.759
		c-0.813,0-1.301,0.271-1.681,0.759c-0.434,0.434-0.542,1.03-0.542,1.735v34.101c0,0.705,0.108,1.301,0.542,1.789
		c0.379,0.488,0.868,0.705,1.681,0.705c0.813,0,1.355-0.217,1.789-0.705c0.434-0.488,0.597-1.084,0.597-1.789V32.75z"/>
</g>
<g>
	<path fill="#B5AA76" d="M27.097,36.17v5.594C11.753,40.409,0,33.016,0,24.094c0-4.51,3.006-8.626,7.952-11.756v1.159
		c-2.236,2.218-3.515,4.781-3.515,7.517C4.437,28.579,14.209,34.864,27.097,36.17z"/>
</g>
<g>
	<path fill="#B5AA76" d="M67.532,24.094c0,8.922-11.736,16.315-27.089,17.67V36.17c12.889-1.306,22.669-7.591,22.669-15.156
		c0-2.735-1.288-5.299-3.54-7.542v-1.157C64.534,15.444,67.532,19.584,67.532,24.094z"/>
</g>
</svg>
